<?xml version="1.0" encoding="utf-8"?>
<svg viewBox="0 0 500 500" width="500" height="500" xmlns="http://www.w3.org/2000/svg">
  <g id="g10" transform="matrix(1.050079, 0, 0, -1.050079, 117.569292, 116.697641)" style="">
    <g id="g12" transform="scale(0.1)">
      <path id="path14" d="M1188.5-1660.8c-17.1-14.8-41.2-24.4-62.8-24.5c-27.2-0.1-50.5,15.1-50.6,54.4 c-0.3,97.8,132.8,185.6,221.5,184.9C1277.1-1522.8,1261.9-1597.5,1188.5-1660.8 M2860-1670.9c-127.4,36.5-193,117.2-218.5,190.1 c41.7,35,93.5,66,144.3,99.7c29.5,19.6,37.7,39.7,49.6,70.8c14.3,37.5,28.7,90.5,29.4,117c0.6,19.3-0.9,34.2-25.5,33.3 c-23.7-0.8-106-54-126.1-67.8c-112.5-76.6-208.3-170.2-291.2-278c37.5,151.7,80.3,375.5,98.6,489.1c5.9,36.6,15.8,86.6-4.5,120.4 c-15.6,26-59.5,77.2-94,96.8c-33,18.7-50.1-3.5-56.2-33.6c-22.1-109.4-34.6-169.7-52.8-259.2c-25.9-127.3-49-228.7-106.4-371.1 c-32.4-80.3-105.4-221.9-187.5-222.2c-80.2-0.3-51.4,194.1-51.5,246.7c-0.1,18.7-3.1,64.2-47.2,74.2 c-147.8,33.2-170,81.2-199.2,76c-18.2-3.2-28.8-19.9-36.2-44.4c-29.4-97.8-45.6-185.8-103.1-273.1c-26.8-40.6-76.2-88.5-114-88.7 c-38.1-0.1-51.1,33.9-51.1,67.9c0,95.5,26.6,192.6,38.7,247.2c9,40.7-12.9,47.9-33.9,54c-27,7.9-60.5,9-72.9,8.9 c-114.6-0.4-220.8-37.2-309.4-109.9c-37-30.4-66.8-67.5-97.3-104.2c-33.6-40.3-132.9-162.7-192.4-162.9 c-41.3-0.1-45.9,46.5-46,78.5c-0.5,141.1,67.9,356.3,118.3,485.1c33.5,85.6,69,163,79.9,208.7c9,37.7-1.1,71.2-21.8,99.3 c-27.8,37.6-58.7,63.9-86.5,76.7c-19.6,9-38.6,3.7-51.9-15c-21.8-30.9-50.4-93.5-61.8-118c-88.4-191.8-154.9-415.4-154.1-627.4 c0.4-113.7,13.1-321.7,168.7-321.2c85.8,0.3,160.7,52.4,215.4,114.9c10.7-73.6,69.1-115.2,150.1-114.9 c89.4,0.3,170.7,51.4,225.3,119.1c17.8-74.8,76.5-119.4,153-119.1c184,0.6,293.2,203.1,342,354.7c5.8-3.8,15.5-6.4,15.5-6.4 c-1.4-17.5-2.6-44.1-2.5-65.1c0.2-119.1,28.5-283.7,183.7-283.2c132.3,0.4,217.5,123.2,278.4,224.7h3.7 c-10.7-69-24.8-124.9-29.5-195.4c-2-30.3,41-27.5,60.2-27.5c94.6,0,90.6,22.5,115.9,103.1c16.6,52.8,56.3,92.3,95.7,129 c20-42.4,64.3-114.5,129.8-169.5c40.3-33.9,97-63.1,146.3-62.9c21.4,0.1,32.1,2.9,48.4,15.5c34.1,26.4,60.8,82.8,63.9,103.1 C2892.8-1688.3,2876.7-1675.7,2860-1670.9" style="fill: rgb(61, 76, 79);"/>
      <path id="path16" d="M3350.4-1564.8c5.6-88.4-61-153.1-150.6-201.6c-94.1-50.8-202.6-77.7-283.6-70.7 c-17.3,1.5-28.6,13.5-24.8,39.1c3.5,23.9,11.5,45.1,20.4,62.5c12.4,24.1,30.4,40.4,65.4,44.4c21.8,2.5,66.3,3.4,103.8,15.1 c43.7,13.6,89.5,34.1,89.5,70.6c0,64.7-284.3,27.9-284.3,154.9c0,128.8,212.1,189.3,294.6,212.4c37.1,10.4,79.8,16,96.1,16 c19.9,0,28.3-12.9,24.6-30.3c-8.2-38.6-25.9-85.7-68.6-96.4c-18.9-4.7-119.6-24.8-152.8-40.9c-10.2-5-16.1-12.1-16.1-19.3 c0-9,10.9-14.3,29-19C3166.3-1447,3343.5-1456.5,3350.4-1564.8" style="fill: rgb(61, 76, 79);"/>
      <path id="path18" d="M481.3-1823.4c-28.6,0-55.8,3.5-84.1,7.2c-99.2,12.8-190.2,20.1-280.2,20.1c-183.5,0-326.8-17.6-489-42.1 c-126.8-19.2-233.7-32.7-332.2-35.7c-139.1-4.3-284.7,23.7-284.7,193.3c0,198.9,220.3,444,427.9,610.2 C-360.1-909.6-139.1-795.6,3.8-738c95.3,38.5,211.9,73.4,284.5,73.4c70,0,59-61.8,7.6-150.1c-48.4-83.1-70.2-104.4-137.9-112.8 c-117.6-14.8-286.2-29.1-606.6-274c-182.3-139.3-348-332.4-345.1-431.9c1.8-63,48.6-83.2,105.8-83.2c84,0,179.2,18,299.6,39.9 c188.8,34.4,424,83.1,622,83.1c53.3,0,103.4-5.8,148.5-17.4c34.7-8.9,56.9-28.9,79.4-58.5c18.4-24,34.6-51.9,47.1-77.3 c11.3-23.1,20.9-46.4,13.6-61.2C517.7-1817.4,506.6-1823.4,481.3-1823.4" style="fill: rgb(61, 76, 79);"/>
      <path id="path20" d="M3429.7-1748.4c3.3,0,6.3,0.1,9.3,0.3c2.9,0.2,5.5,0.8,7.8,1.8c2.3,1,4.1,2.5,5.4,4.6 c1.4,2.1,2.1,4.9,2.1,8.6c0,3.1-0.6,5.6-1.8,7.5c-1.2,1.8-2.8,3.3-4.7,4.2c-2,1-4.2,1.7-6.6,2c-2.5,0.3-5,0.6-7.4,0.6h-19.2v-29.7 H3429.7z M3436.1-1707c11.1,0,19.3-2.2,24.7-6.7c5.3-4.4,8-11.1,8-20c0-8.4-2.4-14.5-7-18.5c-4.7-3.9-10.5-6.2-17.5-6.9l26.7-41.2 h-15.6l-25.4,40.1h-15.4v-40.1H3400v93.3H3436.1z M3370.3-1780.5c3.3-8.3,8-15.5,13.9-21.7c5.9-6.1,12.9-11,20.9-14.4 c8-3.5,16.8-5.3,26.2-5.3c9.2,0,17.8,1.7,25.8,5.3c8,3.4,14.9,8.3,20.8,14.4c5.9,6.1,10.5,13.3,13.9,21.7c3.3,8.3,5,17.4,5,27.2 c0,9.5-1.7,18.4-5,26.6c-3.3,8.3-8,15.5-13.9,21.4c-5.9,6.1-12.9,10.9-20.8,14.3c-8,3.5-16.5,5.2-25.8,5.2 c-9.4,0-18.1-1.7-26.2-5.2c-8.1-3.5-15-8.3-20.9-14.3c-5.9-6-10.5-13.1-13.9-21.4c-3.3-8.2-5-17.1-5-26.6 C3365.3-1763.1,3366.9-1772.1,3370.3-1780.5 M3357.1-1721.9c4.3,9.6,10,18,17.4,25.2c7.3,7.1,15.8,12.7,25.6,16.7 c9.7,4.1,20.1,6.1,31.1,6.1c10.9,0,21.2-2,30.9-6.1c9.7-4,18.2-9.6,25.4-16.7c7.3-7.1,13-15.5,17.3-25.2 c4.3-9.7,6.4-20.2,6.4-31.4c0-11.5-2.1-22.1-6.4-31.9c-4.3-9.7-10-18.2-17.3-25.4c-7.2-7.2-15.7-12.8-25.4-16.8 c-9.7-4-20-6-30.9-6c-11,0-21.3,2-31.1,6c-9.7,4-18.3,9.6-25.6,16.8c-7.4,7.2-13.1,15.6-17.4,25.4c-4.2,9.8-6.4,20.4-6.4,31.9 C3350.7-1742.1,3352.9-1731.6,3357.1-1721.9" style="fill: rgb(61, 76, 79);"/>
    </g>
  </g>
</svg>