<?xml version="1.0" encoding="utf-8"?>
<svg viewBox="0 0 500 500" width="500" height="500" xmlns="http://www.w3.org/2000/svg">
  <path d="M 479.425 212.007 C 471.341 202.205 457.079 196.585 440.301 196.585 C 422.551 196.585 406.573 202.62 395.505 212.417 L 397.31 201.107 L 392.512 199.679 C 385.72 197.656 378.178 196.585 370.7 196.585 C 357.848 196.585 345.56 200.559 335.632 207.105 L 338.489 197.69 L 261.646 197.69 L 260.735 200.698 C 253.908 197.952 246.397 196.585 237.933 196.585 C 222.113 196.585 204.991 202.725 196.101 214.546 C 195.519 213.68 194.908 212.827 194.23 212.007 C 186.145 202.205 171.884 196.585 155.105 196.585 C 137.882 196.585 122.304 202.263 111.286 211.557 L 115.576 185.478 L 110.702 184.067 C 102.378 181.661 93.129 180.388 83.95 180.388 C 50.275 180.388 19.626 201.793 14.175 229.115 C 11.854 240.738 14.565 251.998 21.8 260.822 C 27.968 268.341 37.076 273.701 47.897 276.44 L 14.535 276.44 L 14.535 319.112 L 184.474 319.112 L 184.738 318.591 L 184.771 319.112 L 205.226 319.112 L 208 314.59 L 207.143 319.112 L 253.391 319.112 L 254.069 315.546 C 258.134 318.178 263.41 319.608 269.486 319.608 C 274.918 319.608 279.957 318.482 284.299 316.48 L 283.8 319.112 L 348.645 319.112 L 348.756 318.533 C 351.762 319.211 354.921 319.611 357.937 319.611 C 359.769 319.611 361.658 319.446 363.536 319.115 L 388.259 319.115 L 390.092 315.219 L 391.74 315.219 L 392.244 319.115 L 468.495 319.115 L 472.286 299.148 L 470.893 299.148 L 471.415 296.404 L 472.412 296.404 L 476.207 276.44 L 474.098 276.44 C 475.818 274.883 477.07 272.884 477.504 270.609 C 478.015 267.906 477.314 265.154 475.581 263.065 C 475.129 262.522 474.613 262.046 474.057 261.62 C 480.106 255.406 484.298 247.888 485.929 239.434 C 487.92 229.067 485.675 219.581 479.425 212.007 Z M 435.309 297.655 L 432.968 297.655 L 436.5 279.089 C 437.306 278.984 438.108 278.868 438.903 278.742 L 435.309 297.655 Z M 380.736 237.261 C 380.494 238.501 380.327 239.726 380.202 240.933 C 375.058 244.374 370.237 246.002 365.079 246.002 C 361.589 246.002 358.568 244.863 356.995 242.955 C 356.1 241.872 355.798 240.66 356.077 239.25 C 356.995 234.494 363.447 230.325 369.877 230.325 C 373.901 230.325 377.682 231.746 381.389 234.657 C 381.16 235.52 380.903 236.377 380.736 237.261 Z M 385.945 276.437 L 383.435 280.574 L 381.347 279.405 C 379.973 278.633 378.498 278.038 376.976 277.522 C 378.09 277.256 379.13 276.958 380.035 276.628 L 382.963 275.566 L 385.841 262.95 C 386.23 263.491 386.6 264.045 387.031 264.568 C 391.373 269.828 397.629 273.853 405.184 276.434 L 385.945 276.437 Z M 411.412 278.182 L 410.412 283.434 L 409.022 277.6 C 409.81 277.806 410.599 278.005 411.412 278.182 Z M 435.878 230.876 C 439.012 230.876 441.423 231.709 442.674 233.219 C 443.82 234.612 443.779 236.386 443.534 237.634 C 442.537 242.778 437.255 246.372 430.673 246.372 C 427.471 246.372 424.94 245.526 423.726 244.054 C 422.886 243.034 422.635 241.603 422.985 239.8 C 423.838 235.366 428.541 230.876 435.878 230.876 Z M 291.164 280.271 C 290.263 279.66 289.284 279.122 288.262 278.636 L 291.479 278.636 L 291.164 280.271 Z M 273.472 297.649 C 273.057 298.019 272.382 298.267 271.6 298.312 C 271.999 297.968 272.627 297.685 273.472 297.649 Z M 268.443 231.356 L 264.627 243.92 C 264.382 240.563 263.336 237.515 261.504 234.802 C 260.748 233.69 259.847 232.678 258.855 231.716 L 268.443 231.356 Z M 158.335 237.631 C 157.34 242.778 152.051 246.372 145.474 246.372 C 142.275 246.372 139.741 245.526 138.527 244.054 C 137.684 243.034 137.436 241.603 137.786 239.8 C 138.643 235.363 143.348 230.876 150.682 230.876 C 153.814 230.876 156.23 231.709 157.477 233.219 C 158.621 234.612 158.576 236.388 158.335 237.631 Z M 202.438 278.479 L 202.313 278.742 L 202.288 278.456 C 202.339 278.461 202.387 278.471 202.438 278.479 Z M 259.219 261.753 L 254.762 276.437 L 237.647 276.437 C 246.397 273.55 254.241 268.708 259.219 261.753 Z M 261.077 278.636 L 262.031 278.636 C 261.677 278.786 261.333 278.936 260.99 279.096 L 261.077 278.636 Z M 76.942 240.12 C 72.057 240.12 67.825 238.516 65.622 235.832 C 64.346 234.277 63.918 232.556 64.313 230.573 C 65.588 224.182 74.11 218.784 82.92 218.784 C 88.866 218.784 94.376 221.016 99.756 225.575 C 98.334 228.231 97.203 231.015 96.38 233.918 C 89.808 238.124 83.6 240.12 76.942 240.12 Z M 177.613 270.375 L 183.174 272.878 C 186.245 274.261 189.66 275.442 193.234 276.44 L 182.89 276.44 L 181.781 278.658 L 181.64 276.44 L 163.758 276.44 C 168.759 274.903 173.403 272.861 177.613 270.375 Z M 313.123 297.655 L 317.158 276.437 L 297.579 276.437 L 311.298 231.226 L 315.482 231.385 C 314.71 233.45 314.06 235.553 313.637 237.722 C 311.685 247.811 314.058 257.55 320.324 265.139 C 324.451 270.143 330.119 273.944 336.752 276.434 L 319.501 276.434 L 315.465 297.652 L 313.123 297.655 Z M 95.06 274.85 L 98.008 273.812 L 100.584 262.865 C 100.996 263.439 101.381 264.021 101.836 264.571 C 106.177 269.831 112.433 273.856 119.984 276.437 L 88.76 276.437 C 91.121 275.994 93.293 275.469 95.06 274.85 Z M 448.957 276.437 C 451.493 275.655 453.935 274.748 456.281 273.718 C 456.626 274.543 457.042 275.341 457.623 276.042 C 457.746 276.189 457.908 276.3 458.037 276.437 L 448.957 276.437 Z" style="paint-order: fill; fill: rgb(154, 167, 154); fill-opacity: 0;"/>
  <path d="M 176.277 282.151 L 177.456 300.8 L 177.755 300.8 C 178.366 298.894 179.044 296.905 179.995 295.04 L 186.424 282.151 L 196.868 282.151 L 198.446 300.8 L 198.745 300.8 C 199.289 298.975 199.902 297.067 200.737 295.288 L 207.013 282.151 L 221.188 282.151 L 202.02 313.397 L 190.133 313.397 L 189.086 296.407 L 188.638 296.407 C 188.182 298.026 187.782 299.597 187.043 301.131 L 180.931 313.397 L 169.341 313.397 L 162.15 282.151 L 176.277 282.151 Z" style="fill: rgb(154, 167, 154);"/>
  <path d="M 220.192 282.151 L 233.322 282.151 L 231.323 292.676 L 239.677 292.676 L 241.679 282.151 L 254.808 282.151 L 248.872 313.397 L 235.742 313.397 L 237.804 302.541 L 229.449 302.541 L 227.386 313.397 L 214.256 313.397 L 220.192 282.151 Z" style="fill: rgb(154, 167, 154);"/>
  <path d="M 293.262 297.856 C 291.357 307.886 280.913 313.893 269.479 313.893 C 258.038 313.893 249.876 307.883 251.784 297.856 C 253.649 288.034 264.215 281.652 275.603 281.652 C 286.991 281.652 295.125 288.034 293.262 297.856 Z M 265.481 298.022 C 264.8 301.585 267.221 304.031 271.349 304.031 C 275.479 304.031 278.828 301.585 279.508 298.022 C 280.135 294.704 277.979 291.93 273.651 291.93 C 269.319 291.933 266.107 294.705 265.481 298.022 Z M 296.249 282.151 L 309.876 282.151 L 305.843 303.368 L 317.284 303.368 L 315.376 313.396 L 290.309 313.396 L 296.249 282.151 Z M 349.522 302.207 L 350.13 302.664 C 352.266 304.238 354.955 305.525 358.092 305.525 C 359.436 305.525 361.66 305.067 361.928 303.659 C 362.196 302.252 360.431 302.129 359.231 301.919 L 356.57 301.505 C 351.395 300.716 347.423 298.104 348.346 293.218 C 349.76 285.8 358.651 281.655 366.807 281.655 C 371.084 281.655 374.853 282.529 378.175 284.39 L 372.974 292.39 C 370.89 291.064 368.449 290.026 365.514 290.026 C 364.322 290.026 362.508 290.396 362.27 291.682 C 362.047 292.841 363.705 293.008 364.712 293.215 L 367.688 293.794 C 373.249 294.875 376.941 297.441 375.935 302.745 C 374.514 310.207 365.657 313.893 357.55 313.893 C 352.827 313.893 347.559 312.815 343.671 311.034 L 349.522 302.207 Z" style="fill: rgb(154, 167, 154);"/>
  <path d="M 396.341 302.082 L 395.797 296.571 C 395.65 295.245 395.66 293.878 395.668 292.549 L 395.169 292.549 L 390.874 302.082 L 396.341 302.082 Z M 384.476 313.397 L 370.054 313.397 L 389.025 282.151 L 404.093 282.151 L 411.532 313.397 L 397.11 313.397 L 396.609 309.503 L 386.317 309.503 L 384.476 313.397 Z" style="fill: rgb(154, 167, 154);"/>
  <path d="M 416.334 282.151 L 429.962 282.151 L 425.927 303.368 L 437.369 303.368 L 435.46 313.396 L 410.396 313.396 L 416.334 282.151 Z M 443.931 282.151 L 469.149 282.151 L 467.526 290.689 L 456.032 290.689 L 455.467 293.674 L 465.959 293.674 L 464.417 301.797 L 453.923 301.797 L 453.343 304.862 L 465.232 304.862 L 463.604 313.397 L 437.992 313.397 L 443.931 282.151 Z" style="fill: rgb(154, 167, 154);"/>
  <g fill="#E31837" transform="matrix(2.530716, 0, 0, 2.530716, -536.489388, -575.763497)" style="">
    <path d="M314.348 316.81l6.799-.255-5.705 18.799h12.199l5.703-18.799 6.646.255 2.708-8.926h-25.644l-2.706 8.926zm-25.259 4.881c-1.706 8.815-11.052 14.099-21.292 14.099-10.239 0-17.542-5.283-15.836-14.099 1.67-8.635 11.125-14.244 21.32-14.244 10.194 0 17.478 5.61 15.808 14.244zm-24.87.146c-.605 3.133 1.562 5.283 5.255 5.283 3.695 0 6.693-2.149 7.299-5.283.564-2.914-1.368-5.354-5.241-5.354-3.873-.002-6.749 2.44-7.313 5.354z" style="fill: rgb(61, 76, 79);"/>
    <path d="M285.298 333.276c3.481 1.565 8.195 2.514 12.424 2.514 7.257 0 15.185-3.242 16.453-9.8.902-4.663-2.399-6.922-7.381-7.869l-2.662-.51c-.9-.183-2.385-.328-2.188-1.349.218-1.129 1.84-1.458 2.909-1.458 2.625 0 4.81.911 6.676 2.077l4.654-7.031c-2.978-1.639-6.346-2.403-10.175-2.403-7.301 0-15.263 3.643-16.524 10.164-.832 4.299 2.731 6.594 7.36 7.287l2.378.363c1.078.184 2.66.292 2.42 1.53s-2.231 1.639-3.434 1.639c-2.805 0-5.213-1.129-7.126-2.513l-.545-.401-5.239 7.76zm81.145-24.7c-2.44-.729-5.213-1.129-7.974-1.129-9.838 0-18.78 6.412-20.331 14.427-1.516 7.833 4.787 13.917 14.359 13.917 2.18 0 6.784-.328 8.893-1.093l2.344-10.273c-2.264 1.566-4.678 2.55-7.483 2.55-3.649 0-6.36-2.332-5.774-5.354.578-2.988 4.02-5.355 7.67-5.355 2.76 0 4.961 1.275 6.633 2.77l1.663-10.46zm19.532-1.129c-10.194 0-19.649 5.609-21.32 14.244-1.705 8.815 5.598 14.099 15.838 14.099 10.238 0 19.586-5.283 21.291-14.099 1.668-8.634-5.616-14.244-15.809-14.244zm-1.748 9.034c3.873 0 5.806 2.44 5.24 5.354-.605 3.133-3.604 5.283-7.299 5.283s-5.861-2.149-5.255-5.283c.564-2.912 3.441-5.354 7.314-5.354zm-129.121-14.07c-3.045-.881-6.501-1.365-9.944-1.365-12.271 0-23.424 7.75-25.357 17.438-1.889 9.468 5.971 16.821 17.908 16.821 2.721 0 8.464-.396 11.091-1.32l2.923-12.419c-2.821 1.894-5.834 3.083-9.333 3.083-4.553 0-7.932-2.819-7.203-6.475.721-3.61 5.013-6.474 9.565-6.474 3.442 0 6.188 1.542 8.271 3.347l2.079-12.636z" style="fill: rgb(61, 76, 79);"/>
    <path d="M394.277 334.018c.183-.959 1.252-1.732 2.416-1.732 1.155 0 1.938.773 1.756 1.732-.185.965-1.259 1.738-2.416 1.738-1.163 0-1.938-.774-1.756-1.738zm3.628 0c.146-.772-.408-1.279-1.3-1.279-.906 0-1.638.507-1.783 1.279-.147.773.391 1.285 1.298 1.285.891 0 1.638-.511 1.785-1.285zm-.743.907h-.539l-.339-.769h-.353l-.146.769h-.458l.345-1.816h1.057c.466 0 .718.129.638.556-.061.311-.304.471-.585.493l.38.767zm-.668-1.116c.229 0 .426 0 .464-.194.03-.16-.168-.16-.397-.16h-.496l-.065.354h.494z" style="fill: rgb(61, 76, 79);"/>
  </g>
  <path d="M 21.931 313.448 L 166.417 313.448 L 166.407 313.397 L 166.288 313.397 L 164.462 305.451 L 21.931 305.451 L 21.931 313.448 Z M 21.931 302.09 L 163.687 302.09 L 161.844 294.096 L 21.931 294.096 L 21.931 302.09 Z M 21.931 290.685 L 161.014 290.685 L 160.389 287.772 L 159.111 282.211 L 21.931 282.211 L 21.931 290.685 Z M 323.849 282.151 L 349.065 282.151 L 347.442 290.689 L 335.953 290.689 L 335.384 293.674 L 345.876 293.674 L 344.334 301.797 L 333.842 301.797 L 333.26 304.862 L 345.147 304.862 L 343.525 313.397 L 317.907 313.397 L 323.849 282.151 Z" style="fill: rgb(154, 167, 154);"/>
</svg>