<?xml version="1.0" encoding="utf-8"?>
<svg viewBox="0 0 500 500" width="500" height="500" xmlns="http://www.w3.org/2000/svg">
  <polygon class="st0" points="51.606 68.234 249.917 411.83 448.312 68.234" style="fill: rgb(154, 167, 154);"/>
  <g transform="matrix(0.807131, 0, 0, 0.807131, -13.124732, -13.044025)" style="">
    <path class="st1" d="M287.4,430.6c1.6,1.6,1.7,1.9,0.8,4.4l1.2,0.7l1.5-2.6l8.7,5l0.8-1.3l-12.4-7.2L287.4,430.6z M302.9,403.9 c1.6,1.6,1.7,1.9,0.8,4.4l1.2,0.7l1.5-2.6l8.7,5.1l0.8-1.3l-12.4-7.2L302.9,403.9z M302,430.6c-1.2-0.7-1.4-3.2-1.4-3.5l0-2.4 c0-1.3-0.7-3.4-2.4-4.3c-1.8-1-4.4-0.9-5.6,1.3c-2,3.4,0.3,5.3,2,6.4l0.8-1.3c-1.6-1-2.5-2.2-1.6-4c0.2-0.4,1.5-2.1,3.6-0.9 c1.4,0.8,1.5,2.1,1.5,2.9l0.1,2.3c0.1,3.3,1.3,4.5,3.5,5.9l4.3-7.5l-1.5-0.8L302,430.6z M306.1,413c-1.4-0.8-3.5-1.8-5-1.8 c-1.6-0.1-2.8,0.7-3.5,1.8c-0.6,1.1-0.7,2.5,0.2,3.9c0.8,1.3,2.7,2.7,4.1,3.5c1.4,0.8,3.5,1.8,5,1.8c1.6,0.1,2.8-0.7,3.5-1.8 c0.6-1.1,0.7-2.5-0.2-3.9C309.4,415.2,307.5,413.8,306.1,413 M308.9,419.5c-0.4,0.6-1.2,1.1-2.3,1.1c-0.7,0-2.4-0.7-4-1.6 c-1.5-0.9-3-2.1-3.4-2.6c-0.6-0.9-0.6-1.9-0.2-2.5c0.4-0.6,1.2-1.2,2.3-1.1c0.7,0,2.4,0.7,4,1.6c1.5,0.9,3,2.1,3.4,2.6 C309.3,418,309.3,418.9,308.9,419.5 M298.3,243.2v-12.6h-3.7v12.7c0,2.3-1,3.7-3.5,3.7c-1.7,0-3.1-1.2-3.1-3.9v-12.5h-3.7v12.8 c0,1.9,0.4,3.5,1.4,4.7c1.6,1.9,4,2.3,5.6,2.3C295.5,250.5,298.3,248.3,298.3,243.2 M324.9,239l-4.3-1.1c-0.7-0.2-1.9-0.5-1.9-2 c0-1.7,1.7-2.3,3-2.3c3.2,0,3.5,2,3.6,2.9h3.5c0-2.4-1.5-6.2-6.8-6.2c-5.7,0-6.7,3.8-6.7,5.9c0,4.2,2.7,4.9,5.6,5.7l1.9,0.5 c1.8,0.5,3.2,0.9,3.2,2.4c0,2-1.9,2.5-3.7,2.5c-3.2,0-3.7-2-3.7-3.1h-3.5c0,2.4,1.1,6.4,7.5,6.4c1.5,0,6.9-0.5,6.9-6.3 C329.5,240.7,327.3,239.6,324.9,239 M214.1,203.5v-26.2c0-8.9,2.8-9.2,7.9-9.7l0.3,0l0.1-0.3v-2.6h-30.8v2.9l0.4,0 c7.9,0.6,10,0.8,10,11.3v21.1c0,4.6-8.3,7.4-15.9,7.4c-18.5,0-30.4-14.9-30.4-38c0-38.9,23.7-40.9,28.4-40.9 c16.3,0,22.5,12.6,25.7,22.1l0.1,0.2h3.2l-1-28.1h-3.2l0,0.2c-0.8,3.9-5.2,4.1-5.3,4.1c-1.3,0-2.9-0.5-4.9-1.3 c-3.6-1.3-8.6-3-16.4-3c-25.6,0-40.8,22.4-40.8,44c0,17.2,3.6,25,9.9,32.5c7.5,8.9,19.7,14.1,33.5,14.1 C197.9,213.1,214.1,205.7,214.1,203.5 M226.7,284.2l-15.3,5l11.7-11.3l-1.2-2.1l-15.6,4.5l12-10.8l-1.3-2.2l-14.7,13.7l1.3,2.2 l15.8-4.5l-11.8,11.5l1.3,2.2l19.2-5.9L226.7,284.2z M301.8,250h3.7v-3.9h-3.7V250z M231.7,292.8l-20.2,4.2l1.2,2.1l6-1.3l3.4,5.9 l-4.2,4.5l1.3,2.2l13.8-15.2L231.7,292.8z M223.7,302.1l-2.8-4.8l8.9-1.8L223.7,302.1z M263.2,347.1l-17,9.8l4.1,7 c0.5,0.7,1.9,1.9,4.6,2.1c2.7,0.3,5.5-0.8,8.4-2.8c4.2-2.9,5.2-7,3.3-10.2L263.2,347.1z M264.6,358.9c-0.9,1.5-2.4,2.6-4,3.4 c-1.5,0.8-3,1.3-3.7,1.5c-1,0.3-3,0.1-3.7-0.3c-0.7-0.4-0.9-0.8-1.3-1.4l-2.5-4.3l13.1-7.6l2.2,3.8 C265.4,355.4,265.7,357.1,264.6,358.9 M241.1,343.6l5.8-3.4l4.8,8.4l1.9-1.1l-4.8-8.4l5.3-3.1l5,8.7l1.9-1.1l-6.2-10.7l-16.9,9.8 l6.4,11.1l1.9-1.1L241.1,343.6z M251.5,327l-7.3,4.2l-4.6-7.9l7.3-4.2l-1.1-2l-17,9.8l1.1,2l7.7-4.5l4.6,7.9l-7.7,4.5l1.1,2 l16.9-9.8L251.5,327z M232.1,321.2c1.6-1,2.5-3.2,2.3-4.8c-0.4-1.5-0.7-3-1.1-4.5c-0.4-1.2-0.6-2.1-0.5-2.8c0-2.4,4-3.9,6.1-0.3 c0.5,0.8,0.9,1.5,0.8,2.9c-0.1,1.6-0.9,2.4-1.9,3l1.1,1.9c0.8-0.4,2.9-1.8,3.1-4.7c0.1-1.3-0.5-3-1.3-4.3c-2.2-3.7-5.9-3.8-8.5-2 c-2,1.4-2.1,3-1.9,3.9c0.4,2.5,0.1,1.3,0.8,3.7c0.3,1.2,0.8,2.6,0.8,3.8c-0.3,2.6-2.7,3-4.2,2.6c-0.8-0.3-1.5-1-2.1-1.7 c-0.5-0.8-0.9-1.6-1.1-2.1c-1-3,1.1-4.7,2.1-5.2l-1.1-1.8c-1.3,0.8-2.3,1.5-3.1,3.3c-1,2.4-0.4,4.1,0.7,6.2 C224.9,321.7,228.8,323.3,232.1,321.2 M233.3,138.1v40.7c0,4,0,12.3,3.7,19.7c4.6,9.2,13.4,13.9,26,13.9c31,0,31-24.7,31-35.3v-34 c0-13.8,2.1-15.4,10.9-16.4l0.3,0v-3h-28.1v3.1l0.3,0c8.3,0.5,10.9,2.9,10.9,16.4v35.2c0,11.1-1.3,15-2.7,17.6 c-3.6,6.4-10.6,10.1-19.2,10.1c-20.3,0-20.3-17.7-20.3-26.2v-41.7c0-9.2,1.4-10.7,10.5-11.4l0.3,0v-3.1h-34.1v3.1l0.3,0 C232,127.3,233.3,128.8,233.3,138.1 M411.6,294.4l13.6,8.1l-18.2-0.4l-1.4,2.3l16.8,10l1.2-2l-13.5-8l18.1,0.2l1.3-2.2l-16.8-10 L411.6,294.4z M332.2,250h3.7v-3.9h-3.7V250z M399.8,314.2l13.5,15.6l1.2-2.1l-4.1-4.6l3.5-5.9l6,1.4l1.3-2.2l-20-4.6L399.8,314.2z M411.8,316.7l-2.8,4.7l-5.9-6.9L411.8,316.7z M405.1,339.3l-5.8-3.4l4.9-8.3l-1.9-1.1l-4.9,8.3l-5.3-3.2l5.1-8.7l-1.9-1.1 l-6.3,10.6l16.8,10l6.5-11l-1.9-1.1L405.1,339.3z M529.6,127.7L529.6,127.7c2.6-0.7,4.3-2.8,4.3-5.5c0-4.5-3.9-5.7-7.7-5.7H518 v22.6h3.1v-10.2h4.4c1.2,0.1,2.5,0,3.4,1c1,1.1,1,3,1.3,5c0.2,1.3,0.5,2.8,0.8,4.2h3.4c-0.8-2.1-1.1-4.5-1.4-6.8 C532.7,129.8,532.3,128.4,529.6,127.7 M526.3,126.2h-5.2v-7h5.2c3.5,0.2,4.3,1.7,4.3,3.5C530.6,124.5,529.8,126.1,526.3,126.2 M525.4,109c-9.8,0-17.7,8.7-17.7,19.4c0,10.7,7.9,19.4,17.7,19.4c9.7,0,17.6-8.7,17.6-19.4C543.1,117.7,535.1,109,525.4,109 M525.4,144.2c-8,0-14.1-5.1-14.4-15.8c-0.2-8.7,6.4-15.8,14.4-15.8c7.9,0,14.3,7,14.3,15.8C539.7,137.2,533.4,144.2,525.4,144.2 M477.8,160.4c-8.9-5.7-17.4-11.2-17.4-20c0-8.1,6.1-11.8,11.7-11.8c12.1,0,19.7,11.5,21.8,22.2l0,0.2h3.5l-2.7-28.4h-3l-0.1,0.3 c-0.3,1.9-1,4.2-3.8,4.2c-1.1,0-2.8-0.7-4.8-1.5c-3.3-1.3-7.3-2.9-11.7-2.9c-10.5,0-21.8,7-21.8,22.5c0,13,7.7,18.9,18.6,25.8 c17.4,11.2,19.2,15.5,19.2,22.8c0,7-4.8,14.2-13.9,14.2c-15.6,0-21.7-16.5-23.9-22.7l-0.2-0.4h-3.3l3.6,28.2h3.2v-0.3 c0-1.9,1.1-4,3.4-4c1.3,0,3,0.6,5.1,1.4c3.4,1.3,7.7,3,13.3,3c16.6,0,25.3-12,25.3-23.9C500.1,174.7,488.3,167.1,477.8,160.4 M400.2,343.9l-13.3-7.9l-1.2,2l11.4,6.8c0.7,0.4,2.4,1.4,2.8,2.4c0.4,1.1,0.1,2.4-0.6,3.1c-0.7,0.7-1.9,1-3.2,0.3l-1.7-1l-1.2,2 l1.8,1.1c1.1,0.7,4.4,1.6,6.3-1.3c0.4-0.3,1.2-1.8,1.1-3.3C402.3,345.9,400.9,344.5,400.2,343.9 M433.4,284.7 c-1.7-0.9-4-0.7-5.3,0.4c-1.1,1-2.3,2.1-3.4,3.1c-0.8,0.9-1.5,1.5-2.2,1.8c-2.1,1.1-5.3-1.6-3.2-5.2c0.5-0.8,0.9-1.5,2.1-2.2 c1.5-0.7,2.6-0.4,3.5,0.3l1.1-1.9c-0.7-0.5-3-1.7-5.6-0.4c-1.2,0.5-2.3,1.9-3.1,3.2c-2.2,3.7-0.5,7,2.4,8.4 c2.2,1.1,3.7,0.3,4.3-0.2c2-1.6,1.1-0.8,2.9-2.5c0.9-0.9,1.9-1.9,3-2.5c2.5-1,4,0.9,4.3,2.4c0.2,0.8-0.1,1.8-0.5,2.6 c-0.4,0.8-0.9,1.6-1.3,2c-2.1,2.3-4.6,1.3-5.6,0.7l-1.1,1.8c1.3,0.7,2.4,1.3,4.4,1.1c2.6-0.3,3.8-1.7,5-3.6 C437.4,290.8,436.9,286.6,433.4,284.7 M345.1,417.7l2.1,1.2c1.1,0.6,3.2,1.1,4.9,0.1c1.8-1.1,2.9-3.3,1.7-5.5 c-2-3.4-4.8-2.4-6.6-1.4l0.8,1.3c1.7-0.9,3.2-1.1,4.2,0.6c0.3,0.4,1.1,2.3-1,3.6c-1.4,0.8-2.5,0.3-3.3-0.1l-2-1.1 c-2.9-1.5-4.5-1.1-6.9,0.1l4.3,7.4l1.5-0.9l-3.5-6C342.7,416.4,344.9,417.5,345.1,417.7 M358.7,426c0.9-1.4,0.8-2.8,0.2-3.9 c-0.6-1.1-1.9-1.9-3.5-1.8c-1.5,0-3.6,1-5,1.8c-1.4,0.8-3.3,2.2-4.1,3.5c-0.9,1.4-0.8,2.8-0.2,3.9c0.6,1.1,1.8,1.9,3.5,1.8 c1.5-0.1,3.7-1,5-1.8C356,428.6,357.9,427.3,358.7,426 M349.9,429.7c-1.1,0.1-1.9-0.4-2.3-1.1c-0.4-0.6-0.4-1.6,0.2-2.5 c0.4-0.6,1.8-1.8,3.4-2.7c1.5-0.9,3.3-1.6,4-1.6c1.1-0.1,1.9,0.4,2.3,1.1c0.4,0.6,0.4,1.6-0.2,2.5c-0.4,0.6-1.8,1.8-3.4,2.6 C352.3,429,350.5,429.7,349.9,429.7 M350.1,246h6.5l1.1,4h4l-6.2-19.3h-4.2L345,250h3.9L350.1,246z M353.3,235L353.3,235l2.2,7.6 h-4.5L353.3,235z M348.6,404.4c-2.2,0.6-2.5,0.5-4.2-1.5l-1.2,0.7l1.5,2.5l-8.7,5.1l0.8,1.3l12.3-7.2L348.6,404.4z M389.1,213v-0.3 c0-1.9,1.1-4,3.4-4c1.3,0,3,0.6,5.1,1.4c3.4,1.3,7.7,3,13.3,3c16.6,0,25.3-12,25.3-23.9c0-14.6-11.8-22.2-22.2-28.9 c-8.9-5.7-17.4-11.2-17.4-20c0-8.1,6.1-11.8,11.7-11.8c12.1,0,19.7,11.5,21.8,22.2l0,0.2h3.5l-2.7-28.4h-3l0,0.3 c-0.3,1.9-1.1,4.2-3.9,4.2c-1.1,0-2.8-0.7-4.8-1.5c-3.2-1.3-7.3-2.9-11.7-2.9c-10.5,0-21.8,7-21.8,22.5c0,13,7.7,18.9,18.6,25.8 c17.4,11.2,19.2,15.5,19.2,22.8c0,7-4.8,14.2-13.9,14.2c-15.6,0-21.7-16.5-23.9-22.7l-0.2-0.4h-3.3l3.6,28.2H389.1z M372.8,188.1 c-5.2,13.1-11,16.9-25.7,16.9c-17.4,0-17.4-0.1-17.4-5.2v-32c0.6,0,17.9,0.3,17.9,0.3c9.7,0.1,11.3,1.7,12.7,12.1l0,0.3h3.3v-30.8 h-3.3l0,0.3c-1.3,9-2.2,12.1-12.7,12.1h-17.9v-28.6c0-4.1,1.1-4.1,3.6-4.1h16c13.2,0,16,2.1,17.7,13.4l0,0.3h3.5l-0.4-19.3h-63.5 v3.1l0.3,0c7.5,0.7,10,1.4,10,11.4v57.9c0,9.9-2.6,10.9-10,11.4l-0.3,0v3.1h64.6l5.5-22.6h-3.9L372.8,188.1z M363.9,250h3.7v-3.9 h-3.7V250z M358,429.7l0.8,1.3c1.8-1,3-0.9,3.9,0.7c0.4,0.8,0.8,2.2-0.8,3.1c-1.9,1.1-2.7,0.2-3.7-1.5l-1.3,0.8 c1.2,2.1,1.5,3.1-0.3,4.3c-1.4,0.9-3,0.9-4.2-1.2c-0.9-1.6,0.3-2.8,1.4-3.5l-0.8-1.3c-1.7,1.1-3.6,3-1.8,6c1.2,2.1,3.7,2.9,6,1.6 c1.3-0.8,2.2-1.7,2.1-3.4c0.7,0.3,1.8,0.7,3.2-0.1c2.5-1.4,2.6-3.6,1.5-5.5C362.6,428.6,360.5,428.3,358,429.7" style="fill: rgb(61, 76, 79);"/>
  </g>
  <g transform="matrix(0.807131, 0, 0, 0.807131, -13.124732, -13.044025)" style="">
    <path class="st2" d="M296.1,458.4h59.7L326,406.7L296.1,458.4z M364.9,287.6L364.9,287.6c-11.8-11.8-27.6-13-44.2-13.2 c-0.1,0-3.3,0.4-3.3,0.4c-9.9,1.2-20.1,2.4-28.4,8.3c-14.5,9.5-15.9,25.2-17.2,40.4c-0.3,3.5-0.6,7.2-1.1,10.7l-0.1,0.7l29.2,0.1 l0-5c-0.1-4.5-0.2-9.2,1.9-12.7c4.1-6.2,10.8-9.1,21.2-9.2c4.1,0.3,13.8,1.7,16.3,9.9c1.6,7.8-4.5,12.9-10.4,17.9 c-1.8,1.5-3.7,3.1-5.2,4.6c-7.2,6.7-12,15.3-14.3,25.3l-0.1,27.9l33.5-0.1l0-0.6c0.1-2.6-0.1-5.4-0.3-8.4c-0.5-8-1.1-17.2,3.8-24.2 c3.5-4.9,8-9.2,12.4-13.3c5.6-5.3,11.3-10.7,15-17.5C379.5,315.8,376,299.4,364.9,287.6 M37.3,75.9l288.7,500l288.7-500H37.3z M80.2,100.7h491.5L325.9,526.4L80.2,100.7z" style="fill: rgb(61, 76, 79);"/>
  </g>
</svg>