<?xml version="1.0" encoding="utf-8"?>
<svg viewBox="0 0 500 500" width="500" height="500" xmlns="http://www.w3.org/2000/svg">
  <g id="layer1" transform="matrix(6.154334, 0, 0, 6.154334, 13.896551, -407.762732)" style="">
    <g id="g265" transform="matrix(0.10095727,0,0,0.10095727,3.0278716e-6,100.56309)">
      <path id="path243" d="m 18.3,81.4 v 10.1 c 0,5.5 0.5,7.5 1.1,8.8 1.8,3.9 5,4.3 8,4.3 1.9,0 5.1,-0.2 7.1,-2.2 1.6,-1.9 1.8,-5.5 1.8,-7.5 V 87.5 C 36.3,83 34.7,78.7 30.5,74.8 L 11.7,57.5 C 8.8,54.8 6.2,52.2 4.2,48.7 1.4,44 0.5,39.3 0.5,34.2 v -9 c 0,-5.3 2.6,-10.6 6.1,-14 6.4,-5.9 17,-6.4 21,-6.4 6.4,0 14.1,1 20.1,6.7 5.9,5.8 6.4,12.8 6.4,17.2 V 40.1 H 35.8 v -9.3 c 0,-2.6 0.2,-5.1 -2.1,-7.7 -1.6,-1.8 -3.7,-2.6 -6.3,-2.6 -2.2,0 -5.1,0.6 -6.7,2.2 -1.8,1.8 -1.9,3.9 -1.9,5.9 v 5.1 c 0,4 1.1,6.1 4.5,9.2 l 18.8,17.2 c 6.1,5.6 12.5,11.9 12.5,23.8 v 12.8 c 0,5.3 -0.6,11.6 -6.4,17.2 -5.9,5.8 -13,6.4 -19.7,6.4 -5.9,0 -12.7,-1 -18.8,-5.1 C 1.3,109.5 0,101 0,95.4 v -14 z" style="fill: rgb(61, 76, 79);"/>
      <path id="path245" d="M 80.8,118.8 V 22.2 H 61 V 6.4 h 57.5 V 22.1 H 99.1 v 96.6 H 80.8 Z" style="fill: rgb(61, 76, 79);"/>
      <path id="path247" d="M 128.1,6.4 H 175 v 15.7 h -28.6 v 27 h 22.2 V 64.8 H 146.4 V 103 h 31 v 15.7 h -49.3 z" style="fill: rgb(61, 76, 79);"/>
      <path id="path249" d="M 201.3,118.8 182.8,6.4 h 19.3 l 10.1,77.7 10.1,-77.7 h 19.3 l -18.5,112.4 z" style="fill: rgb(61, 76, 79);"/>
      <path id="path251" d="M 251.1,6.4 H 298 v 15.7 h -28.6 v 27 h 22.2 V 64.8 H 269.4 V 103 h 31 v 15.7 h -49.3 z" style="fill: rgb(61, 76, 79);"/>
      <path id="path253" d="M 379.5,118.8 366.3,34.2 h -0.8 l 1,14.9 v 69.7 H 348.2 V 6.4 h 28.9 L 387.8,79 h 0.6 L 399.2,6.4 h 28.9 V 118.8 H 409.8 V 49.1 l 1,-14.9 H 410 l -13.2,84.6 z" style="fill: rgb(61, 76, 79);"/>
      <path id="path255" d="m 482.6,118.8 -3.2,-20.7 h -19.6 l -3.2,20.7 H 437.7 L 458.3,6.4 h 22.5 l 20.7,112.4 z m -5.3,-36.4 -7.5,-44.8 h -0.3 L 462,82.4 Z" style="fill: rgb(61, 76, 79);"/>
      <path id="path257" d="m 511,6.4 h 34.5 c 3.5,0 10,0.3 15.3,5.5 6.1,5.9 6.1,13.2 6.1,19.9 v 60 c 0,6.6 -0.5,15.4 -7.4,21.7 -5.1,4.8 -11.2,5.3 -15.7,5.3 H 511 Z m 27.3,97.2 c 4.5,0 7.4,-2.1 8.5,-3.9 1.6,-2.2 1.8,-7.5 1.8,-10.1 V 34.7 c 0,-2.9 0.2,-6.7 -1.9,-9.5 -2.1,-2.7 -4.8,-3.1 -7.5,-3.1 h -9.8 v 81.4 h 8.9 z" style="fill: rgb(61, 76, 79);"/>
      <path id="path259" d="m 577.6,6.4 h 34.5 c 3.5,0 10,0.3 15.3,5.5 6.1,5.9 6.1,13.2 6.1,19.9 v 60 c 0,6.6 -0.5,15.4 -7.4,21.7 -5.1,4.8 -11.2,5.3 -15.7,5.3 H 577.7 V 6.4 Z m 27.3,97.2 c 4.5,0 7.4,-2.1 8.5,-3.9 1.6,-2.2 1.8,-7.5 1.8,-10.1 V 34.7 c 0,-2.9 0.2,-6.7 -1.9,-9.5 -2.1,-2.7 -4.8,-3.1 -7.5,-3.1 H 596 v 81.4 h 8.9 z" style="fill: rgb(61, 76, 79);"/>
      <path id="path261" d="m 644.2,6.4 h 46.9 v 15.7 h -28.6 v 27 h 22.2 V 64.8 H 662.5 V 103 h 31 v 15.7 h -49.3 z" style="fill: rgb(61, 76, 79);"/>
      <path id="path263" d="m 740.4,118.8 -19.1,-66.3 -0.6,0.2 0.8,12.7 v 53.5 H 703.2 V 6.4 h 20.2 l 18.8,63.4 h 0.5 l -1,-11.9 V 6.4 H 760 v 112.4 z" style="fill: rgb(61, 76, 79);"/>
    </g>
  </g>
</svg>