<svg width="2500" height="2500" viewBox="0 0 2500 2500" fill="none" xmlns="http://www.w3.org/2000/svg">
<path fill-rule="evenodd" clip-rule="evenodd" d="M2463.04 2045.22V1651.67H36.7563V2045.22H2463.04Z" fill="#3D4C4F"/>
<path fill-rule="evenodd" clip-rule="evenodd" d="M349.237 1932.47H336.384V1854.09H225.985V1932.47H213.132V1767H225.985V1843.43H336.384V1767H349.237V1932.47ZM566.39 1932.47H553.537V1767H566.39V1932.47ZM783.309 1921.78H865.07V1932.47H770.443V1767H783.309V1921.78ZM1135.36 1777.66H1063.05V1840.51H1128.33V1851.17H1063.05V1932.47H1050.2V1767H1135.36V1777.66ZM1335.54 1932.47H1322.66V1767H1335.54V1932.47ZM1678.12 1793.45C1657.98 1782.05 1639.29 1776.7 1619.4 1776.7C1577.43 1776.7 1546.37 1807.76 1546.37 1849.73C1546.37 1886.84 1570.87 1922.77 1623.02 1922.77C1642.21 1922.77 1655.32 1919.12 1668.42 1912.59V1867.93H1633.46V1857.27H1681.27V1920.6C1661.61 1930.06 1641.73 1934.66 1622.56 1934.66C1571.13 1934.66 1532.56 1898.28 1532.56 1849.27C1532.56 1800.74 1570.17 1764.83 1621.38 1764.83C1640.04 1764.83 1654.84 1768.45 1678.15 1778.89V1793.45H1678.12ZM1970.72 1777.66H1893.33V1843.91H1968.77V1854.57H1893.33V1921.78H1972.68V1932.47H1880.46V1767H1970.72V1777.66ZM2178.16 1777.66H2205.08C2235.43 1777.66 2248.75 1791.27 2248.75 1809.93C2248.75 1829.84 2234.69 1842.46 2205.56 1842.46H2178.16V1777.66ZM2165.32 1767V1932.47H2178.16V1853.13H2200.48C2220.38 1853.13 2226.69 1855.79 2246.58 1887.1L2275.47 1932.47H2290.51L2253.15 1875.22C2245.36 1863.57 2238.81 1854.09 2231.06 1849.99C2252.16 1842.21 2262.6 1828.87 2262.6 1809.72C2262.6 1787.64 2248.28 1767.01 2207.78 1767.01H2165.32V1767Z" fill="#D3E4CD"/>
<path fill-rule="evenodd" clip-rule="evenodd" d="M1244.32 1651.67H2463.04V1728.04H2463.24V848.326H1244.32V1651.67Z" fill="#5B625B"/>
<path fill-rule="evenodd" clip-rule="evenodd" d="M36.9509 1651.67H1255.67V1728.04H1255.88V848.326H36.9509V1651.67Z" fill="#9AA79A"/>
<path fill-rule="evenodd" clip-rule="evenodd" d="M2463.24 848.326V454.785H36.9509V848.326H2463.24Z" fill="#3D4C4F"/>
<path fill-rule="evenodd" clip-rule="evenodd" d="M348.316 588.114H286.204V742.908H273.338V588.114H211.226V577.427H348.316V588.114ZM815.383 660.161C815.383 701.405 783.361 733.194 741.871 733.194C700.38 733.194 667.865 701.405 667.865 660.161C667.865 618.917 700.367 587.141 741.871 587.141C783.348 587.141 815.383 618.917 815.383 660.161V660.161ZM829.209 660.161C829.209 612.601 790.624 575.248 741.391 575.248C692.378 575.248 654.039 612.614 654.039 660.161C654.039 707.708 692.378 745.074 741.391 745.074C790.624 745.087 829.209 707.721 829.209 660.161ZM1309.62 577.427H1322.49V742.908H1309.62V596.103H1309.14L1246.54 673.507L1183.95 596.103H1183.45V742.908H1170.59V577.427H1183.45L1246.54 654.351L1309.62 577.427V577.427ZM1809.66 577.427H1822.52V742.908H1809.66V596.103H1809.18L1746.59 673.507L1683.99 596.103H1683.51V742.908H1670.65V577.427H1683.51L1746.59 654.351L1809.66 577.427ZM2229.18 654.104V742.908H2216.31V654.104L2152.02 577.427H2167.55L2222.88 642.937L2277.94 577.427H2293.47L2229.18 654.104V654.104Z" fill="#D3E4CD"/>
</svg>
