<svg width="252" height="304" viewBox="0 0 252 304" fill="none" xmlns="http://www.w3.org/2000/svg">
<path d="M207.167 97.7358V96.5277L206.313 97.3825L126 177.788L45.6871 97.3825L44.8333 96.5277V97.7358V250.393H25.1667H5.5V1.45797L125.646 121.743L126 122.097L126.354 121.743L246.5 1.45797V125.571V250.393H226.833H207.167V97.7358Z" stroke="#3C4B4E"/>
<path d="M156.25 250.893H196.583V220.608V122.107L156.25 162.487V220.608H146.166V172.582L126 192.772L105.833 172.582V220.608H95.7498V162.487L55.4165 122.107V220.608V250.893H95.7498H105.833H126H146.166H156.25Z" fill="#3C4B4E"/>
<path d="M21.248 294.75C21.504 294.707 21.7813 294.483 22.08 294.078C22.3787 293.651 22.528 292.873 22.528 291.742V275.742L14.144 295.102L5.632 275.774V291.582C5.632 292.734 5.81333 293.545 6.176 294.014C6.56 294.462 6.90133 294.707 7.2 294.75H2.464C2.784 294.707 3.136 294.473 3.52 294.046C3.904 293.598 4.096 292.777 4.096 291.582V275.55C4.096 274.526 3.91467 273.822 3.552 273.438C3.18933 273.054 2.82667 272.819 2.464 272.734H6.784L14.624 290.622L22.336 272.734H26.208C25.9307 272.777 25.632 273.001 25.312 273.406C24.992 273.811 24.832 274.558 24.832 275.646V291.87C24.832 292.937 24.992 293.673 25.312 294.078C25.632 294.483 25.9307 294.707 26.208 294.75H21.248ZM35.1583 286.206L33.1102 291.294C32.7902 292.083 32.6302 292.734 32.6302 293.246C32.6302 293.95 32.9502 294.451 33.5903 294.75H29.0143C29.2276 294.75 29.5369 294.537 29.9423 294.11C30.3476 293.683 30.8169 292.841 31.3503 291.582L39.7023 271.71L47.9903 291.678C48.4596 292.83 48.9076 293.619 49.3343 294.046C49.7823 294.473 50.1343 294.707 50.3903 294.75H45.0783C45.6116 294.494 45.8783 294.099 45.8783 293.566C45.8783 293.118 45.7076 292.478 45.3663 291.646L43.1263 286.206H35.1583ZM42.6143 284.894L39.1263 276.35L35.7023 284.894H42.6143ZM73.7655 272.734C73.4668 272.798 73.1682 273.043 72.8695 273.47C72.5922 273.875 72.4535 274.601 72.4535 275.646V295.646L56.0695 276.542V291.87C56.0695 292.894 56.2508 293.619 56.6135 294.046C56.9762 294.451 57.3282 294.686 57.6695 294.75H53.1575C53.4562 294.686 53.7548 294.451 54.0535 294.046C54.3735 293.619 54.5335 292.883 54.5335 291.838V275.838C54.5335 275.113 54.2882 274.451 53.7975 273.854C53.3068 273.257 52.6882 272.883 51.9415 272.734H55.9095L70.9175 290.238V275.646C70.9175 274.003 70.3628 273.033 69.2535 272.734H73.7655ZM93.1193 274.43C93.1193 274.003 93.0019 273.641 92.7673 273.342C92.5326 273.022 92.1699 272.819 91.6793 272.734H97.0553C96.7779 272.777 96.4046 273.022 95.9353 273.47C95.4659 273.918 94.9753 274.75 94.4633 275.966L86.3673 295.518L78.1432 275.87C77.6739 274.739 77.2046 273.961 76.7353 273.534C76.2873 273.086 75.9139 272.819 75.6152 272.734H80.9593C80.3833 272.883 80.0953 273.257 80.0953 273.854C80.0953 274.174 80.1699 274.515 80.3193 274.878C80.4686 275.241 80.5539 275.454 80.5753 275.518L86.7833 290.718L92.7993 275.934C93.0126 275.443 93.1193 274.942 93.1193 274.43ZM98.813 294.75C98.813 294.814 98.941 294.771 99.197 294.622C99.453 294.451 99.6877 294.153 99.901 293.726C100.114 293.278 100.221 292.627 100.221 291.774V275.71C100.221 274.857 100.114 274.217 99.901 273.79C99.709 273.342 99.485 273.043 99.229 272.894C98.973 272.745 98.845 272.691 98.845 272.734H103.933C103.933 272.691 103.805 272.745 103.549 272.894C103.293 273.043 103.058 273.342 102.845 273.79C102.632 274.217 102.525 274.857 102.525 275.71V291.774C102.525 292.627 102.632 293.278 102.845 293.726C103.058 294.153 103.293 294.441 103.549 294.59C103.805 294.739 103.933 294.793 103.933 294.75H98.813ZM117.001 294.75C117.001 294.814 117.129 294.771 117.385 294.622C117.641 294.451 117.865 294.131 118.057 293.662C118.271 293.171 118.377 292.467 118.377 291.55V275.838C118.377 274.963 118.271 274.302 118.057 273.854C117.865 273.385 117.641 273.065 117.385 272.894C117.129 272.723 117.001 272.67 117.001 272.734H128.585V275.934C128.201 274.654 127.049 274.014 125.129 274.014H120.681V283.102H126.185C126.612 283.102 126.975 283.038 127.273 282.91C127.572 282.761 127.796 282.611 127.945 282.462C128.095 282.313 128.18 282.217 128.201 282.174V285.278C128.18 285.235 128.095 285.139 127.945 284.99C127.796 284.841 127.572 284.702 127.273 284.574C126.996 284.446 126.644 284.382 126.217 284.382H120.681V293.47H125.673C126.633 293.47 127.455 293.278 128.137 292.894C128.841 292.489 129.343 291.977 129.641 291.358L129.065 294.75H117.001ZM147.354 294.75C147.738 294.686 147.93 294.494 147.93 294.174C147.93 293.79 147.77 293.363 147.45 292.894C147.13 292.403 146.948 292.126 146.906 292.062L142.426 285.15L137.402 291.87C137.082 292.297 136.826 292.681 136.634 293.022C136.463 293.342 136.378 293.641 136.378 293.918C136.378 294.387 136.719 294.665 137.402 294.75H132.602C132.602 294.793 132.73 294.739 132.986 294.59C133.242 294.441 133.604 294.142 134.074 293.694C134.564 293.225 135.151 292.531 135.834 291.614L141.658 283.902L136.506 275.934C135.908 275.017 135.375 274.323 134.906 273.854C134.436 273.385 134.052 273.075 133.754 272.926C133.455 272.755 133.306 272.691 133.306 272.734H138.65C138.244 272.819 138.042 273.022 138.042 273.342C138.042 273.662 138.276 274.185 138.746 274.91L143.194 281.822L147.833 275.678C148.495 274.803 148.826 274.099 148.826 273.566C148.826 273.075 148.506 272.798 147.866 272.734H152.634C152.634 272.713 152.495 272.766 152.218 272.894C151.962 273.001 151.62 273.246 151.194 273.63C150.788 273.993 150.319 274.537 149.786 275.262L143.962 283.038L149.114 291.038C149.796 292.105 150.404 292.915 150.938 293.47C151.471 294.003 151.898 294.366 152.218 294.558C152.538 294.729 152.698 294.793 152.698 294.75H147.354ZM170.356 278.686C170.356 279.923 170.057 281.033 169.46 282.014C168.884 282.974 168.052 283.731 166.964 284.286C165.876 284.841 164.596 285.118 163.124 285.118C162.228 285.118 161.268 285.022 160.244 284.83V291.806C160.244 292.638 160.35 293.278 160.564 293.726C160.777 294.153 161.012 294.441 161.268 294.59C161.524 294.739 161.652 294.793 161.652 294.75H156.564C156.564 294.793 156.692 294.739 156.948 294.59C157.204 294.441 157.428 294.153 157.62 293.726C157.833 293.299 157.94 292.659 157.94 291.806V275.774C157.94 274.921 157.833 274.27 157.62 273.822C157.428 273.374 157.204 273.075 156.948 272.926C156.692 272.755 156.564 272.691 156.564 272.734H162.836C163.924 272.734 164.82 272.809 165.524 272.958C166.228 273.086 166.846 273.289 167.38 273.566C168.34 274.057 169.076 274.771 169.588 275.71C170.1 276.627 170.356 277.619 170.356 278.686ZM167.892 279.102C167.892 277.587 167.422 276.361 166.484 275.422C165.545 274.483 164.297 274.014 162.74 274.014H160.244V283.582C161.161 283.753 162.121 283.838 163.124 283.838C164.617 283.838 165.78 283.411 166.612 282.558C167.465 281.683 167.892 280.531 167.892 279.102ZM173.923 283.998C173.923 281.737 174.403 279.721 175.363 277.95C176.344 276.179 177.71 274.803 179.459 273.822C181.23 272.841 183.267 272.35 185.571 272.35C187.491 272.35 189.283 272.777 190.947 273.63C192.632 274.462 193.976 275.721 194.979 277.406C196.003 279.091 196.515 281.118 196.515 283.486C196.515 285.747 196.024 287.763 195.043 289.534C194.083 291.305 192.718 292.681 190.947 293.662C189.198 294.643 187.171 295.134 184.867 295.134C182.947 295.134 181.144 294.718 179.459 293.886C177.795 293.033 176.451 291.763 175.427 290.078C174.424 288.393 173.923 286.366 173.923 283.998ZM193.955 283.966C193.955 282.025 193.55 280.275 192.739 278.718C191.95 277.139 190.851 275.913 189.443 275.038C188.056 274.142 186.488 273.694 184.739 273.694C183.139 273.694 181.71 274.099 180.451 274.91C179.214 275.721 178.243 276.873 177.539 278.366C176.835 279.838 176.483 281.555 176.483 283.518C176.483 285.459 176.878 287.219 177.667 288.798C178.478 290.355 179.576 291.582 180.963 292.478C182.371 293.353 183.95 293.79 185.699 293.79C187.299 293.79 188.718 293.385 189.955 292.574C191.214 291.763 192.195 290.622 192.899 289.15C193.603 287.657 193.955 285.929 193.955 283.966ZM207.215 283.678C208.196 283.678 209.049 283.454 209.775 283.006C210.5 282.537 211.044 281.939 211.407 281.214C211.791 280.467 211.983 279.689 211.983 278.878C211.983 278.046 211.801 277.267 211.439 276.542C211.097 275.795 210.564 275.187 209.839 274.718C209.113 274.249 208.228 274.014 207.183 274.014H204.463V291.806C204.463 292.659 204.569 293.31 204.783 293.758C204.996 294.185 205.231 294.473 205.487 294.622C205.743 294.75 205.871 294.793 205.871 294.75H200.783C200.783 294.793 200.911 294.739 201.167 294.59C201.423 294.441 201.647 294.153 201.839 293.726C202.052 293.299 202.159 292.659 202.159 291.806V275.806C202.159 274.931 202.052 274.27 201.839 273.822C201.647 273.353 201.423 273.043 201.167 272.894C200.911 272.723 200.783 272.67 200.783 272.734H207.119C208.783 272.734 210.148 273.011 211.215 273.566C212.303 274.099 213.081 274.803 213.551 275.678C214.041 276.531 214.287 277.47 214.287 278.494C214.287 279.347 214.084 280.19 213.679 281.022C213.273 281.833 212.687 282.547 211.919 283.166C211.172 283.763 210.297 284.179 209.295 284.414L208.783 284.51L214.415 291.678C215.161 292.51 215.78 293.15 216.271 293.598C216.761 294.046 217.113 294.345 217.327 294.494C217.561 294.643 217.7 294.729 217.743 294.75H213.999L205.295 283.678H207.215ZM222.142 274.014C221.204 274.014 220.425 274.195 219.806 274.558C219.188 274.921 218.74 275.379 218.462 275.934L218.91 272.734H234.078L234.526 275.934C234.249 275.379 233.801 274.921 233.182 274.558C232.564 274.195 231.785 274.014 230.846 274.014H227.646V291.774C227.646 292.627 227.753 293.278 227.966 293.726C228.18 294.174 228.414 294.473 228.67 294.622C228.926 294.771 229.054 294.814 229.054 294.75H223.966C223.966 294.814 224.094 294.771 224.35 294.622C224.606 294.473 224.83 294.185 225.022 293.758C225.236 293.31 225.342 292.649 225.342 291.774V274.014H222.142ZM243.607 295.134C242.497 295.134 241.431 294.985 240.407 294.686C239.383 294.366 238.465 293.929 237.655 293.374V289.502C238.209 290.931 239.052 292.019 240.183 292.766C241.335 293.491 242.529 293.854 243.767 293.854C245.004 293.854 246.039 293.449 246.871 292.638C247.703 291.806 248.119 290.782 248.119 289.566C248.119 288.755 247.948 288.062 247.607 287.486C247.287 286.91 246.764 286.377 246.039 285.886C245.313 285.374 244.289 284.809 242.967 284.19C241.111 283.337 239.756 282.451 238.903 281.534C238.071 280.595 237.655 279.465 237.655 278.142C237.655 277.011 237.921 276.009 238.455 275.134C239.009 274.238 239.745 273.555 240.663 273.086C241.601 272.595 242.625 272.35 243.735 272.35C244.695 272.35 245.633 272.489 246.551 272.766C247.468 273.022 248.321 273.395 249.111 273.886V277.342C248.599 276.169 247.82 275.262 246.775 274.622C245.751 273.961 244.705 273.63 243.639 273.63C242.423 273.63 241.441 274.025 240.695 274.814C239.948 275.603 239.575 276.542 239.575 277.63C239.575 278.419 239.799 279.102 240.247 279.678C240.695 280.233 241.239 280.702 241.879 281.086C242.54 281.47 243.457 281.939 244.631 282.494C245.825 283.07 246.807 283.603 247.575 284.094C248.343 284.585 248.983 285.225 249.495 286.014C250.007 286.803 250.263 287.763 250.263 288.894C250.263 290.174 249.953 291.283 249.335 292.222C248.737 293.161 247.927 293.886 246.903 294.398C245.9 294.889 244.801 295.134 243.607 295.134Z" fill="#3C4B4E"/>
</svg>
